_________________________  Visit us at _________________________
  
http://p2pdl.com  ____________________________  http://p2pdl.com

 
http://www.shotpix.com/images/03720035099478320642.jpg

I Me Aur Main - Naa Jaane M4A+MP4 (1080p) x264 - ViZNU [P2PDL]


                         1080p Full HD MP4 Video
                                   +
                          128 Kbps/VBR M4A Audio

General
Complete name                  : I Me Aur Main - Naa Jaane Kahan Se Aaya Hai  (1080p) x264 - ViZNU [P2PDL].mp4
Format                         : MPEG-4
Format profile                 : Base Media / Version 2
Codec ID                       : mp42
File size                      : 34.4 MiB
Duration                       : 3mn 17s
Overall bit rate mode          : Variable
Overall bit rate               : 1 465 Kbps

Video
ID                             : 1
Format                         : AVC
Width                          : 1 920 pixels
Height                         : 816 pixels
Display aspect ratio           : 2.35:1
Frame rate mode                : Constant
Frame rate                     : 25.000 fps
Scan type                      : Progressive
Bits/(Pixel*Frame)             : 0.034
Stream size                    : 31.3 MiB (91%)
Writing library                : x264 core 129

Audio
ID                             : 2
Format                         : AAC
Bit rate mode                  : Variable
Bit rate                       : 127 Kbps
Channel(s)                     : 2 channels
Channel positions              : Front: L R
Sampling rate                  : 48.0 KHz
Stream size                    : 2.99 MiB (9%)

Subtitles                      : No

Screens:
 
http://www.shotpix.com/images/90946255497980824459.png 
http://www.shotpix.com/images/54210538160605956110.jpg

Thumbs:
 
http://www.shotpix.com/images/17236493495877708997.jpg

------------------------------------------------------------------------

Notes:

* Recommended to use latest version VLC Media Player.
* Install shark007 codecs in case of any kind of problem in playback (For non-VLC Media Player users).
* Alternatively, install Core AVC codecs, the fastest decoder that there is coupled with Community Center Codec Pack and play on Windows Media Player Classic.

Greets to: VYTO, a2zRG, MusiK_KinG, Kuroyukihime, Caveman, Ash968, Neon, Masta, TorDigger and staff members at ExtraTorrent, TPB, H33T, KAT, 1337x, PublicHD, Ahashare, TorrentMafia, Limetorrents, BTScene, P2PDL, and all others

Encoder Notes: Looking For Early Access To Anything You Can Provide DVDScr, R5, DVDRips, BluRay, Direct Audio, Early Music
Releases, Seedboxes, Links, Dedicated Servers anything u can provide, Advance / Promo CDs/DVDs. If You Got anything to
offer contact me at "prg@hush.com".